<svg id="Layer_1" data-name="Layer 1" xmlns="http://www.w3.org/2000/svg" viewBox="0 0 133.55246 19.95023"><defs><style>.cls-1{fill:#fff;}.cls-2{fill:#ffbc00;}</style></defs><path class="cls-1" d="M213.71966,282.31123a6.98993,6.98993,0,0,1-2.51187-.44257,5.84557,5.84557,0,0,1-2.01348-1.25992,5.76567,5.76567,0,0,1-1.3277-1.92178,6.37033,6.37033,0,0,1,0-4.84432,5.75371,5.75371,0,0,1,1.33567-1.91779,5.9946,5.9946,0,0,1,2.02146-1.25992,7.44174,7.44174,0,0,1,5.267.07974,5.36726,5.36726,0,0,1,2.07329,1.547l-1.75432,1.60281a4.039,4.039,0,0,0-1.3277-1.03664,3.76116,3.76116,0,0,0-1.61079-.35087,3.91125,3.91125,0,0,0-1.50313.2791,3.44946,3.44946,0,0,0-1.96564,1.96165,4.33155,4.33155,0,0,0,0,3.03817,3.48033,3.48033,0,0,0,1.96564,1.96165,3.98666,3.98666,0,0,0,1.50313.27511,3.6532,3.6532,0,0,0,1.61079-.35884,4.106,4.106,0,0,0,1.3277-1.04063L218.564,280.226a5.41655,5.41655,0,0,1-2.07329,1.551A6.85727,6.85727,0,0,1,213.71966,282.31123Z" transform="translate(-207.38816 -265.8605)"/><path class="cls-1" d="M225.79657,282.31123a6.98416,6.98416,0,0,1-2.55573-.45054,6.108,6.108,0,0,1-2.03741-1.2679,5.73444,5.73444,0,0,1-1.34365-1.92178,6.29988,6.29988,0,0,1,0-4.81641,5.74268,5.74268,0,0,1,1.34365-1.9138,6.153,6.153,0,0,1,2.02944-1.2679,6.926,6.926,0,0,1,2.54775-.45054,7.12445,7.12445,0,0,1,2.54775.44257,6.05131,6.05131,0,0,1,2.02544,1.25992,5.72957,5.72957,0,0,1,1.34764,1.91779,6.39941,6.39941,0,0,1,0,4.83635,5.69836,5.69836,0,0,1-1.34764,1.92975,6.05147,6.05147,0,0,1-2.02544,1.25992A7.068,7.068,0,0,1,225.79657,282.31123Zm-.016-2.28859a3.70926,3.70926,0,0,0,1.44333-.27511,3.47652,3.47652,0,0,0,1.16024-.78546,3.59446,3.59446,0,0,0,.77748-1.18417,4.2876,4.2876,0,0,0,0-3.02221,3.65315,3.65315,0,0,0-.77748-1.18816,3.52555,3.52555,0,0,0-1.16024-.78147,3.6395,3.6395,0,0,0-1.44333-.2791,3.71256,3.71256,0,0,0-1.45529.2791,3.40627,3.40627,0,0,0-1.16025.78147,3.83536,3.83536,0,0,0-.7695,1.18816,4.2876,4.2876,0,0,0,0,3.02221,3.77109,3.77109,0,0,0,.7695,1.18417,3.36061,3.36061,0,0,0,1.16025.78546A3.784,3.784,0,0,0,225.78062,280.02264Z" transform="translate(-207.38816 -265.8605)"/><path class="cls-1" d="M234.21332,282.11187V270.42171h2.7192v11.69016Z" transform="translate(-207.38816 -265.8605)"/><path class="cls-1" d="M239.69159,282.11187V270.42171h2.23676l6.89767,8.41676h-1.08449v-8.41676h2.67135v11.69016h-2.23676l-6.89767-8.41675h1.08449v8.41675Z" transform="translate(-207.38816 -265.8605)"/><path class="cls-1" d="M257.03943,282.31123a9.58948,9.58948,0,0,1-2.69527-.37479,6.3611,6.3611,0,0,1-2.08127-.97684l.921-2.0374a6.43916,6.43916,0,0,0,1.77027.87716,6.62318,6.62318,0,0,0,2.08525.34289,4.12128,4.12128,0,0,0,1.29581-.16746,1.61359,1.61359,0,0,0,.72565-.44257.96654.96654,0,0,0,.23524-.64192.88467.88467,0,0,0-.36682-.74559,3.01023,3.01023,0,0,0-.97683-.45054q-.61-.17343-1.32771-.33491c-.48243-.10367-.96089-.23125-1.44731-.38276a5.88674,5.88674,0,0,1-1.33568-.602,2.82785,2.82785,0,0,1-.96886-.98482,2.97472,2.97472,0,0,1-.35884-1.52705,3.30814,3.30814,0,0,1,.53427-1.83008,3.67252,3.67252,0,0,1,1.63072-1.31973,6.7086,6.7086,0,0,1,2.74711-.49041,8.94068,8.94068,0,0,1,2.177.26714,6.37536,6.37536,0,0,1,1.88191.76552l-.85324,2.0374a6.7641,6.7641,0,0,0-1.61876-.67382,6.12279,6.12279,0,0,0-1.6068-.22726,3.88765,3.88765,0,0,0-1.28384.17543,1.49423,1.49423,0,0,0-.7097.47446,1.0963,1.0963,0,0,0-.22727.66984.8953.8953,0,0,0,.3708.74957,2.61172,2.61172,0,0,0,.96488.44257c.4027.10765.84925.2153,1.33966.319a14.48027,14.48027,0,0,1,1.4513.39473,6.50588,6.50588,0,0,1,1.31973.59009,2.87387,2.87387,0,0,1,.97684.96886,2.82232,2.82232,0,0,1,.37479,1.51111,3.19388,3.19388,0,0,1-.54225,1.80615,3.78094,3.78094,0,0,1-1.64667,1.31973A6.70121,6.70121,0,0,1,257.03943,282.31123Z" transform="translate(-207.38816 -265.8605)"/><path class="cls-2" d="M295.91436,282.31123a7.15315,7.15315,0,0,1-2.55572-.44257,5.84268,5.84268,0,0,1-2.02146-1.25992,5.76582,5.76582,0,0,1-1.3277-1.92178,6.37033,6.37033,0,0,1,0-4.84432,5.71855,5.71855,0,0,1,1.34365-1.91779,6.02569,6.02569,0,0,1,2.0374-1.25992,7.786,7.786,0,0,1,5.37062.07176,5.5699,5.5699,0,0,1,2.09322,1.50314l-1.71843,1.60281a4.35643,4.35643,0,0,0-1.40346-1.00873,4.15371,4.15371,0,0,0-1.65464-.327,4.09082,4.09082,0,0,0-1.535.2791,3.60622,3.60622,0,0,0-1.21207.7735,3.51176,3.51176,0,0,0-.78546,1.18815,4.2655,4.2655,0,0,0,0,3.01424,3.45193,3.45193,0,0,0,.78546,1.19214,3.64054,3.64054,0,0,0,1.2041.78546,3.95981,3.95981,0,0,0,1.52706.28309,4.64992,4.64992,0,0,0,1.56294-.26714,4.54333,4.54333,0,0,0,1.47921-.88513l1.535,1.95367a6.95887,6.95887,0,0,1-2.22081,1.1124A8.66657,8.66657,0,0,1,295.91436,282.31123Zm2.25271-1.83805v-4.38979h2.472V280.824Z" transform="translate(-207.38816 -265.8605)"/><path class="cls-2" d="M301.60793,282.11187l5.19519-11.69016h2.67135l5.247,11.69016h-2.84279l-4.29012-10.32258h1.08449L304.383,282.11187Zm2.62351-2.50389.68578-2.05734h6.04444l.70172,2.05734Z" transform="translate(-207.38816 -265.8605)"/><path class="cls-2" d="M315.93755,282.11187V270.42171h2.23676l4.97589,8.2493H321.966l4.87622-8.2493h2.25669v11.69016h-2.52383l-.03189-7.79875h.49838l-3.93924,6.54681h-1.20411l-3.99108-6.54681h.55022v7.79875Z" transform="translate(-207.38816 -265.8605)"/><path class="cls-2" d="M334.57721,279.93891h6.3634v2.173h-9.0507V270.42171h8.8354v2.169h-6.1481Zm-.19935-4.82439h5.62578v2.12114h-5.62578Z" transform="translate(-207.38816 -265.8605)"/><path class="cls-2" d="M285.41986,275.80764l-1.58672,1.58668a4.11364,4.11364,0,0,1-7.017,3.181l1.71778,3.36433h-5.84934l1.72155-3.36433a4.11489,4.11489,0,0,1-5.81935-5.81931l7.02442-7.02443,2.20185,2.202-6.38083,6.38421a1.35407,1.35407,0,1,0,1.42005,1.35007c0-.03962-.00835-.07692-.01172-.11547l6.29734-6.294,2.77155,2.77154-2.29014,2.29032-.00267.00266a1.40868,1.40868,0,1,0,1.45417,1.18788l.00426-.00426.55-.54642,1.54565-1.54565,1.33976-1.33958v-.00373l.04868-.045-.5951-.58763-.73347-.72975-2.77155-2.77154.00125-.00124-1.32484-1.32484-.00125.00124-2.20185-2.20185a1.86579,1.86579,0,0,0-2.64595,0l-7.02424,7.02425a5.99025,5.99025,0,0,0,3.5814,10.1866,1.87554,1.87554,0,0,0,.51267,1.63535,1.92632,1.92632,0,0,0,1.38843.55388h5.7893a1.8648,1.8648,0,0,0,1.59432-.89441,1.84229,1.84229,0,0,0,.24692-1.29482,5.9965,5.9965,0,0,0,4.33744-2.63085,5.68635,5.68635,0,0,0,.87185-2.062A6.12325,6.12325,0,0,0,285.41986,275.80764Z" transform="translate(-207.38816 -265.8605)"/></svg>